<?xml version="1.0" encoding="UTF-8"?>
<!DOCTYPE svg PUBLIC "-//W3C//DTD SVG 1.1//EN" "http://www.w3.org/Graphics/SVG/1.1/DTD/svg11.dtd">
<!-- Creator: CorelDRAW 2017 -->
<svg xmlns="http://www.w3.org/2000/svg" xml:space="preserve" width="154.314mm" height="40.9098mm" version="1.1" style="shape-rendering:geometricPrecision; text-rendering:geometricPrecision; image-rendering:optimizeQuality; fill-rule:evenodd; clip-rule:evenodd"
viewBox="0 0 15431.4 4090.98"
 xmlns:xlink="http://www.w3.org/1999/xlink">
 <defs>
  <style type="text/css">
   <![CDATA[
    .fil0 {fill:#3F3B3A;fill-rule:nonzero}
    .fil1 {fill:#6B6A6D;fill-rule:nonzero}
    .fil5 {fill:url(#id0)}
    .fil7 {fill:url(#id1)}
    .fil2 {fill:url(#id2)}
    .fil6 {fill:url(#id3)}
    .fil3 {fill:url(#id4)}
    .fil4 {fill:url(#id5)}
   ]]>
  </style>
  <linearGradient id="id0" gradientUnits="userSpaceOnUse" x1="633.02" y1="1289" x2="861.02" y2="1895.99">
   <stop offset="0" style="stop-opacity:1; stop-color:#E62F3A"/>
   <stop offset="0.431373" style="stop-opacity:1; stop-color:#A1272A"/>
   <stop offset="1" style="stop-opacity:1; stop-color:#59201B"/>
  </linearGradient>
  <linearGradient id="id1" gradientUnits="userSpaceOnUse" xlink:href="#id0" x1="4592.02" y1="140" x2="5635.01" y2="4082.98">
  </linearGradient>
  <linearGradient id="id2" gradientUnits="userSpaceOnUse" xlink:href="#id0" x1="1270.02" y1="560" x2="1548.02" y2="1301">
  </linearGradient>
  <linearGradient id="id3" gradientUnits="userSpaceOnUse" xlink:href="#id0" x1="173.02" y1="319" x2="335.02" y2="749">
  </linearGradient>
  <linearGradient id="id4" gradientUnits="userSpaceOnUse" xlink:href="#id0" x1="2231.02" y1="42" x2="2418.02" y2="543">
  </linearGradient>
  <linearGradient id="id5" gradientUnits="userSpaceOnUse" xlink:href="#id0" x1="1750.02" y1="1821.99" x2="2005.02" y2="2499.99">
  </linearGradient>
 </defs>
 <g id="Слой_x0020_1">
  <metadata id="CorelCorpID_0Corel-Layer"/>
  <g id="_2633618033808">
   <path class="fil0" d="M7664.01 2417.99l-288 1368 -110 0 -288 -1368 -354 0 385 1661 623 0 386 -1661 -354 0zm620 1661l1075 0 0 -293 -738 0 0 -398 591 0 0 -288 -591 0 0 -389 738 0 0 -293 -1075 0 0 1661zm2001 -557l193 557 369 0 -237 -635c152,-95 244,-249 244,-479 0,-378 -207,-547 -586,-547l-644 0 0 1661 337 0 0 -557 324 0zm225 -552c0,147 -68,264 -237,264l-312 0 0 -528 307 0c161,0 242,105 242,264z"/>
   <path class="fil0" d="M12137.05 3878.21c-110.8,20.84 -281.28,41.67 -411.02,41.67 -365.57,0 -423.34,-213.09 -423.34,-659.15 0,-455.54 62.5,-668.63 418.6,-668.63 125.01,0 312.53,22.73 415.76,41.67l7.58 -150.59c-102.28,-20.83 -277.49,-50.19 -442.28,-50.19 -480.16,0 -584.34,286.01 -584.34,827.74 0,526.56 106.07,818.26 584.34,818.26 153.42,0 328.63,-25.57 442.28,-48.3l-7.58 -152.48z"/>
   <path class="fil0" d="M14879.4 4078.99l0 -701 552 -945 -242 0 -236 454c-64,125 -120,232 -166,339l-5 0c-52,-114 -100,-214 -164,-339l-232 -454 -242 0 520 947 0 699 215 0z"/>
   <polygon class="fil0" points="13237.01,4078.99 13452.01,4078.99 13452.01,2613.99 13955.01,2613.99 13955.01,2432.99 12737.01,2432.99 12737.01,2613.99 13237.01,2613.99 "/>
   <polygon class="fil0" points="12334.01,2432.99 12334.01,4078.99 12547.01,4078.99 12547.01,2432.99 "/>
   <path class="fil1" d="M7072.93 1867.56c0,-125.1 -54.48,-181.6 -189.67,-181.6 -102.9,0 -223.97,28.25 -223.97,28.25l4.04 84.74c0,0 135.19,-10.08 209.84,-10.08 54.48,0 80.71,18.15 80.71,78.69l0 40.35 -143.26 12.11c-119.04,10.09 -183.61,50.44 -183.61,167.47 0,115.01 56.5,177.56 165.45,177.56 90.8,0 179.58,-42.37 179.58,-42.37 40.36,32.28 78.69,42.37 147.29,42.37l2.02 -92.82c-30.26,-4.03 -46.41,-18.16 -48.42,-50.44l0 -254.23zm-119.05 125.1l0 149.31c0,0 -74.65,24.21 -137.2,24.21 -46.41,0 -68.61,-32.28 -68.61,-80.71 0,-50.44 26.23,-76.67 76.68,-80.71l129.13 -12.1zm829.29 -294.59l0 429.77c0,0 -60.54,28.25 -127.12,28.25 -84.75,0 -92.82,-44.39 -92.82,-167.47l0 -290.55 -121.06 0 0 288.53c0,195.72 32.28,278.45 191.68,278.45 68.61,0 149.32,-46.41 149.32,-46.41l0 34.3 121.06 0 0 -554.87 -121.06 0zm786.91 102.9l0 -102.9 -153.35 0 0 -161.42 -119.04 0 0 161.42 -72.64 0 0 102.9 72.64 0 0 256.25c0,161.42 38.33,207.83 163.43,207.83 38.34,0 112.99,-14.13 112.99,-14.13l-6.05 -96.85c0,0 -58.51,2.02 -90.8,2.02 -56.49,0 -60.53,-28.25 -60.53,-110.97l0 -244.15 153.35 0zm540.75 -115.01c-185.63,0 -246.16,104.92 -246.16,286.52 0,183.61 56.49,292.57 246.16,292.57 191.68,0 248.18,-108.96 248.18,-292.57 0,-181.6 -62.55,-286.52 -248.18,-286.52zm0 476.18c-102.91,0 -125.1,-62.55 -125.1,-189.66 0,-129.14 28.25,-185.63 125.1,-185.63 98.87,0 125.1,56.49 125.1,185.63 0,127.11 -22.2,189.66 -125.1,189.66z"/>
   <polygon class="fil2" points="1804.01,1325.99 1804.01,536.99 1015.01,536.99 1015.01,1325.99 "/>
   <polygon class="fil3" points="2044.01,572.99 2606.01,572.99 2606.01,11.99 2044.01,11.99 "/>
   <polygon class="fil4" points="1597.01,2442.99 2160.01,2442.99 2160.01,1879.99 1597.01,1879.99 "/>
   <polygon class="fil5" points="480.01,1860.99 1015.01,1860.99 1015.01,1324.99 480.01,1324.99 "/>
   <polygon class="fil6" points="0.01,788.99 509.01,788.99 509.01,278.99 0.01,278.99 "/>
   <polygon class="fil7" points="5624.01,144.99 4447.01,2340.99 3591.01,706.99 2782.01,706.99 2782.01,1370.99 3291.01,1370.99 3291.01,1023.99 3638.01,1023.99 3638.01,1370.99 3291.01,1370.99 3291.01,1879.99 3929.01,1879.99 3929.01,2517.99 3291.01,2517.99 3291.01,1879.99 2782.01,1879.99 2782.01,1370.99 2325.01,1370.99 3744.01,4078.99 5150.01,4078.99 7034.01,528.99 7903.01,263.99 7903.01,144.99 "/>
  </g>
 </g>
</svg>
